<?xml version="1.0" encoding="UTF-8" standalone="no"?>
<!-- Created with Inkscape (http://www.inkscape.org/) -->

<svg
   xmlns:dc="http://purl.org/dc/elements/1.1/"
   xmlns:cc="http://creativecommons.org/ns#"
   xmlns:rdf="http://www.w3.org/1999/02/22-rdf-syntax-ns#"
   xmlns:svg="http://www.w3.org/2000/svg"
   xmlns="http://www.w3.org/2000/svg"
   xmlns:sodipodi="http://sodipodi.sourceforge.net/DTD/sodipodi-0.dtd"
   xmlns:inkscape="http://www.inkscape.org/namespaces/inkscape"
   id="svg4190"
   version="1.1"
   inkscape:version="0.91 r13725"
   width="48"
   height="48"
   viewBox="0 0 48 48"
   sodipodi:docname="piocara_logo_quadri.svg"
   inkscape:export-xdpi="90"
   inkscape:export-ydpi="90">
  <metadata
     id="metadata4196">
    <rdf:RDF>
      <cc:Work
         rdf:about="">
        <dc:format>image/svg+xml</dc:format>
        <dc:type
           rdf:resource="http://purl.org/dc/dcmitype/StillImage" />
        <dc:title></dc:title>
      </cc:Work>
    </rdf:RDF>
  </metadata>
  <defs
     id="defs4194" />
  <sodipodi:namedview
     pagecolor="#ffffff"
     bordercolor="#666666"
     borderopacity="1"
     objecttolerance="10"
     gridtolerance="10"
     guidetolerance="10"
     inkscape:pageopacity="0"
     inkscape:pageshadow="2"
     inkscape:window-width="1383"
     inkscape:window-height="876"
     id="namedview4192"
     showgrid="true"
     inkscape:snap-others="false"
     inkscape:snap-bbox="true"
     inkscape:bbox-nodes="true"
     inkscape:zoom="10.016502"
     inkscape:cx="43.695941"
     inkscape:cy="22.618725"
     inkscape:window-x="57"
     inkscape:window-y="24"
     inkscape:window-maximized="1"
     inkscape:current-layer="svg4190">
    <inkscape:grid
       type="xygrid"
       id="grid4212" />
  </sodipodi:namedview>
  <g
     id="g4208"
     transform="matrix(0.17387726,0,0,0.19136949,-1.3008114,59.956879)">
    <path
       sodipodi:nodetypes="ssssssssssscssscscsssssssscscssssssssscscscsssssccsssssssssssssssssssscssssssssssssssssssscsscsssssscssss"
       style="fill:#bb2615"
       d="m 19.590759,-63.75596 c -0.590666,-1.1578 -0.631541,-1.55276 -0.443401,-4.28443 0.294882,-4.28148 0.599864,-5.42593 2.88176,-10.81387 14.064033,-33.20752 36.339831,-74.78391 62.68625,-117.00001 12.311896,-19.72791 22.645312,-35.3437 24.644072,-37.2419 1.76146,-1.67285 8.90061,-7.25186 14.95769,-11.68894 25.08932,-18.37909 57.33065,-38.98087 85.5,-54.63337 10.34981,-5.75094 25.80021,-13.88579 26.37309,-13.88579 0.18154,0 0.3269,0.5351 0.3269,1.20333 0,0.99482 -1.08506,3.21719 -6.26174,12.82501 -14.22957,26.4098 -26.19098,49.52247 -44.44081,85.87166 l -13.17933,26.25001 -3.53405,2.68496 c -32.63021,24.79045 -94.025092,74.898 -136.552167,111.44729 -5.674959,4.87726 -10.765749,9.24433 -11.312862,9.70459 l -0.994755,0.83683 z m 26.726374,-30.68571 c 25.919039,-24.04998 69.063487,-61.52307 114.299997,-99.27521 5.6925,-4.75068 10.43915,-8.79505 10.54812,-8.98749 0.10897,-0.19244 1.44384,-2.6449 2.96638,-5.4499 16.36018,-30.14055 44.32588,-77.45105 57.27855,-96.9 3.95981,-5.94581 3.99004,-6.0023 2.32788,-4.35 -0.74693,0.7425 -4.56013,6.075 -8.47378,11.85 -7.63982,11.27335 -36.37987,54.34664 -43.8374,65.7 -11.62787,17.70229 -13.86488,21.12736 -14.94861,22.88772 -0.63917,1.03825 -1.30816,1.82785 -1.48664,1.75467 -0.17848,-0.0732 -2.87505,-1.2296 -5.99239,-2.56983 -3.11734,-1.34023 -5.69265,-2.39983 -5.72291,-2.35467 -0.0302,0.0452 -0.34582,0.5663 -0.70126,1.15807 -1.79813,2.99373 -6.18542,5.82434 -10.41655,6.72061 -9.81715,2.07954 -19.6835,-3.53045 -20.43906,-11.62162 -0.20486,-2.19376 0.14971,-2.68926 0.80035,-1.11848 0.67021,1.61803 3.48964,4.11159 6.10815,5.40216 7.27338,3.58479 16.88339,2.49061 22.31827,-2.54113 2.46207,-2.27944 3.4445,-4.20313 3.60354,-7.056 0.16809,-3.01519 -0.5691,-4.98651 -2.77718,-7.42652 -1.85645,-2.05144 -5.03114,-3.8845 -8.25546,-4.7667 -2.64991,-0.72502 -8.42108,-0.7385 -11.06624,-0.0258 -4.12759,1.11207 -8.02634,3.71208 -9.67238,6.45035 -0.36607,0.60897 -0.69127,1.14511 -0.72268,1.19142 -0.0314,0.0463 -2.26272,-0.86469 -4.95846,-2.02445 -2.69574,-1.15975 -4.98994,-2.00765 -5.09822,-1.8842 -0.62363,0.71097 -6.52283,9.27385 -10.38519,15.07443 -28.315821,42.52531 -60.54851,98.86952 -76.702517,134.07948 -2.424537,5.28462 -3.12816,7.08532 -2.834685,7.25446 0.214707,0.12374 0.640086,0.41101 0.945291,0.63838 0.508593,0.37888 1.222317,-0.25274 8.55,-7.56654 4.397295,-4.38896 11.032584,-10.79839 14.745084,-14.24318 z m 88.547777,-117.78447 c -2.22174,-0.43699 -5.28083,-2.03775 -6.74721,-3.53067 -1.78087,-1.81311 -2.66057,-3.81266 -2.66057,-6.04746 0,-8.33523 12.4802,-12.73312 20.68295,-7.28844 1.83763,1.21975 2.78586,2.35391 3.7047,4.43108 0.87773,1.98426 0.69698,4.93007 -0.41939,6.83501 -2.5365,4.32821 -8.79335,6.73482 -14.56048,5.60048 z m -17.89778,137.39752 c -14.55322,-0.94677 -29.368456,-4.20338 -42.149998,-9.2652 -3.807069,-1.5077 -10.8,-4.82633 -10.8,-5.12535 0,-0.11832 5.817624,-5.30297 12.928053,-11.52144 9.628122,-8.42034 13.054899,-11.25274 13.424999,-11.09641 0.86042,0.36343 5.17757,1.62066 8.29695,2.41622 3.908516,0.99682 12.177056,2.36844 17.099996,2.83662 4.48082,0.42613 15.63132,0.52812 20.22341,0.18498 18.33986,-1.37046 37.26247,-6.51461 54.17659,-14.72801 13.38896,-6.50161 23.70342,-13.6077 33.10951,-22.81062 10.5704,-10.34209 17.64602,-20.57187 22.80852,-32.97609 12.23782,-29.40449 6.22857,-61.35213 -15.68135,-83.36852 -1.6849,-1.69308 -4.10335,-3.93851 -5.37434,-4.98983 l -2.31089,-1.91151 0.85725,-1.53524 c 0.4715,-0.84439 1.7738,-3.29025 2.89402,-5.43525 1.12022,-2.145 2.40151,-4.575 2.84731,-5.4 0.4458,-0.825 1.4491,-2.68125 2.22955,-4.125 0.78045,-1.44375 1.48228,-2.625 1.55961,-2.625 0.84858,0 8.79775,5.36668 13.63471,9.20513 4.81269,3.81919 12.04567,10.98314 15.69465,15.54487 10.51718,13.14794 17.4117,28.63879 19.96141,44.85 0.84889,5.39727 1.13194,9.08187 1.14079,14.85 0.0528,34.42761 -18.0243,67.84871 -49.57076,91.64663 -24.23226,18.28027 -56.77226,30.98913 -88.73376,34.65596 -8.38647,0.96214 -20.01758,1.25967 -28.26623,0.72306 z m -85.51533,-39.3121 c -11.410932,-13.09747 -18.934241,-28.0862 -22.184911,-44.19912 -1.467091,-7.27208 -1.77664,-10.60344 -1.785398,-19.21442 -0.0083,-8.17965 0.157262,-10.26848 1.367402,-17.25001 3.800561,-21.92616 16.012672,-44.14177 34.46824,-62.70275 38.254634,-38.47313 94.791267,-55.37684 148.519447,-44.40534 3.2282,0.65921 6.62809,1.43696 7.55531,1.72833 l 1.68584,0.52976 -6.9553,3.88322 c -3.82542,2.13578 -8.9803,5.05787 -11.4553,6.49354 l -4.5,2.61033 -3.07686,-0.55792 c -7.1361,-1.29398 -11.52862,-1.61788 -21.82314,-1.60922 -8.31829,0.007 -10.75869,0.11339 -15.27456,0.66592 -27.41665,3.35448 -52.363576,14.39731 -72.475438,32.08145 -21.904901,19.26074 -34.423043,44.21942 -34.423043,68.63269 0,16.28175 5.245818,31.90033 15.123408,45.02752 l 1.60086,2.12751 -2.443575,5.07249 c -1.343964,2.78986 -4.38282,9.18431 -6.753012,14.20988 -2.370192,5.02557 -4.41651,9.24447 -4.547373,9.37533 -0.13086,0.13086 -1.31103,-0.99377 -2.622597,-2.49919 z"
       id="path4204"
       inkscape:connector-curvature="0" />
    <path
       sodipodi:nodetypes="sssssssscscscsscsssssscsssssscssssssssscssscssscc"
       style="fill:#080403"
       d="m 19.637056,-63.66521 c -0.528747,-1.03643 -0.555781,-1.45106 -0.307281,-4.71273 0.14986,-1.96698 0.409689,-4.14201 0.577401,-4.83341 0.371295,-1.53068 5.095293,-12.51918 9.325869,-21.69291 17.284455,-37.48025 45.673112,-87.16479 74.435655,-130.27392 4.57844,-6.86214 4.86049,-7.21292 7.67576,-9.54625 13.46379,-11.15893 44.92943,-32.7098 70.57267,-48.33534 16.92159,-10.31105 37.22,-21.70262 50.61217,-28.40379 l 3.66218,-1.83248 0.20168,1.07504 c 0.15013,0.80028 0.0461,1.35512 -0.40715,2.17089 -11.57642,20.83666 -40.10096,75.90527 -56.91888,109.88584 l -6.3,12.72914 -8.68229,6.74043 c -40.68679,31.58694 -87.955835,70.23209 -130.142869,106.39925 L 20.216809,-62.5288 Z m 25.034295,-29.14315 c 26.31578,-24.56888 83.954069,-74.56374 124.114429,-107.65556 2.10507,-1.73456 2.4786,-2.21593 4.0739,-5.25 3.19451,-6.07559 19.21335,-34.32989 27.74685,-48.94035 12.65246,-21.66267 25.45518,-42.50081 32.34755,-52.65 1.0645,-1.5675 2.03989,-3.01916 2.16752,-3.22591 0.56968,-0.92281 -15.34773,7.41338 -26.50447,13.8808 -26.67147,15.46109 -60.19895,38.5135 -92.18166,63.38111 -4.35518,3.3863 -4.48509,3.52143 -7.52763,7.82989 -18.099066,25.62955 -46.567075,72.63962 -66.382398,109.61921 -6.631719,12.37619 -20.808309,41.2046 -20.808309,42.31415 0,0.078 0.428217,0.41297 0.951597,0.74435 l 0.951597,0.6025 7.073403,-7.10214 c 3.89037,-3.90618 10.180302,-10.00281 13.977621,-13.54805 z m 89.919969,-111.30876 c -6.70246,-1.20131 -11.82176,-5.56376 -12.64573,-10.77614 -0.1383,-0.87488 -0.18565,-1.84231 -0.10523,-2.14985 0.11816,-0.45185 0.31795,-0.29991 1.04102,0.79174 1.84525,2.78582 5.75227,5.27094 9.85491,6.26836 2.80678,0.68238 7.69164,0.63046 10.5971,-0.11263 4.18816,-1.07115 7.78717,-3.3455 9.51597,-6.0135 0.81959,-1.26483 1.0269,-1.43465 1.19537,-0.97921 0.35383,0.95649 -0.2548,3.61351 -1.25953,5.49858 -1.74177,3.26789 -5.38948,5.91153 -9.71807,7.04307 -2.25715,0.59005 -6.40703,0.80037 -8.47581,0.42958 z m 0.82581,-8.0795 c -7.53639,-1.43918 -11.73534,-7.3032 -9.17187,-12.80892 2.27358,-4.88308 9.322,-7.57703 15.56799,-5.95015 4.64366,1.20951 8.12825,4.61429 8.50712,8.31228 0.56063,5.47192 -4.5084,10.10668 -11.56375,10.57307 -1.09422,0.0723 -2.59699,0.0155 -3.33949,-0.12628 z"
       id="path4202"
       inkscape:connector-curvature="0" />
  </g>
</svg>
